<mxfile host="app.diagrams.net" agent="Mozilla/5.0 (Windows NT 10.0; Win64; x64; rv:130.0) Gecko/20100101 Firefox/130.0" version="24.7.17">
  <diagram name="Page-1" id="1XT6X6Xrv9_FAg_ivsgR">
    <mxGraphModel dx="2954" dy="1106" grid="1" gridSize="10" guides="1" tooltips="1" connect="1" arrows="1" fold="1" page="1" pageScale="1" pageWidth="850" pageHeight="1100" math="0" shadow="0">
      <root>
        <mxCell id="0" />
        <mxCell id="1" parent="0" />
        <mxCell id="WI_3s359e2L3Rit39Bw_-3" value="FPL" style="edgeStyle=orthogonalEdgeStyle;rounded=0;orthogonalLoop=1;jettySize=auto;html=1;exitX=1;exitY=0.5;exitDx=0;exitDy=0;entryX=0;entryY=0.5;entryDx=0;entryDy=0;" edge="1" parent="1" source="WI_3s359e2L3Rit39Bw_-1" target="WI_3s359e2L3Rit39Bw_-2">
          <mxGeometry relative="1" as="geometry" />
        </mxCell>
        <mxCell id="WI_3s359e2L3Rit39Bw_-1" value="EUROCTL" style="rounded=0;whiteSpace=wrap;html=1;" vertex="1" parent="1">
          <mxGeometry x="70" y="90" width="120" height="60" as="geometry" />
        </mxCell>
        <mxCell id="WI_3s359e2L3Rit39Bw_-5" style="edgeStyle=orthogonalEdgeStyle;rounded=0;orthogonalLoop=1;jettySize=auto;html=1;exitX=1;exitY=0.5;exitDx=0;exitDy=0;" edge="1" parent="1" source="WI_3s359e2L3Rit39Bw_-2" target="WI_3s359e2L3Rit39Bw_-4">
          <mxGeometry relative="1" as="geometry" />
        </mxCell>
        <mxCell id="WI_3s359e2L3Rit39Bw_-2" value="SWIM-CORE" style="rounded=0;whiteSpace=wrap;html=1;" vertex="1" parent="1">
          <mxGeometry x="365" y="90" width="120" height="60" as="geometry" />
        </mxCell>
        <mxCell id="WI_3s359e2L3Rit39Bw_-9" style="edgeStyle=orthogonalEdgeStyle;rounded=0;orthogonalLoop=1;jettySize=auto;html=1;exitX=0.25;exitY=1;exitDx=0;exitDy=0;entryX=0.75;entryY=1;entryDx=0;entryDy=0;" edge="1" parent="1" source="WI_3s359e2L3Rit39Bw_-4" target="WI_3s359e2L3Rit39Bw_-1">
          <mxGeometry relative="1" as="geometry">
            <Array as="points">
              <mxPoint x="680" y="220" />
              <mxPoint x="160" y="220" />
            </Array>
          </mxGeometry>
        </mxCell>
        <mxCell id="WI_3s359e2L3Rit39Bw_-4" value="ITWP" style="rounded=0;whiteSpace=wrap;html=1;" vertex="1" parent="1">
          <mxGeometry x="650" y="90" width="120" height="60" as="geometry" />
        </mxCell>
        <mxCell id="WI_3s359e2L3Rit39Bw_-7" style="edgeStyle=orthogonalEdgeStyle;rounded=0;orthogonalLoop=1;jettySize=auto;html=1;exitX=1;exitY=0.5;exitDx=0;exitDy=0;entryX=0.683;entryY=1;entryDx=0;entryDy=0;entryPerimeter=0;" edge="1" parent="1" source="WI_3s359e2L3Rit39Bw_-4" target="WI_3s359e2L3Rit39Bw_-4">
          <mxGeometry relative="1" as="geometry" />
        </mxCell>
        <mxCell id="WI_3s359e2L3Rit39Bw_-10" value="FPL" style="edgeStyle=orthogonalEdgeStyle;rounded=0;orthogonalLoop=1;jettySize=auto;html=1;exitX=1;exitY=0.5;exitDx=0;exitDy=0;entryX=0;entryY=0.5;entryDx=0;entryDy=0;" edge="1" parent="1" source="WI_3s359e2L3Rit39Bw_-11" target="WI_3s359e2L3Rit39Bw_-12">
          <mxGeometry relative="1" as="geometry" />
        </mxCell>
        <mxCell id="WI_3s359e2L3Rit39Bw_-11" value="EUROCTL" style="rounded=0;whiteSpace=wrap;html=1;" vertex="1" parent="1">
          <mxGeometry x="70" y="330" width="120" height="60" as="geometry" />
        </mxCell>
        <mxCell id="WI_3s359e2L3Rit39Bw_-13" value="FPL" style="edgeStyle=orthogonalEdgeStyle;rounded=0;orthogonalLoop=1;jettySize=auto;html=1;exitX=1;exitY=0.5;exitDx=0;exitDy=0;" edge="1" parent="1" source="WI_3s359e2L3Rit39Bw_-12">
          <mxGeometry relative="1" as="geometry">
            <mxPoint x="670" y="360" as="targetPoint" />
          </mxGeometry>
        </mxCell>
        <mxCell id="WI_3s359e2L3Rit39Bw_-12" value="SWIM-CORE" style="rounded=0;whiteSpace=wrap;html=1;" vertex="1" parent="1">
          <mxGeometry x="365" y="330" width="120" height="60" as="geometry" />
        </mxCell>
        <mxCell id="WI_3s359e2L3Rit39Bw_-19" style="edgeStyle=orthogonalEdgeStyle;rounded=0;orthogonalLoop=1;jettySize=auto;html=1;exitX=0.25;exitY=1;exitDx=0;exitDy=0;entryX=1;entryY=0.5;entryDx=0;entryDy=0;" edge="1" parent="1" source="WI_3s359e2L3Rit39Bw_-15" target="WI_3s359e2L3Rit39Bw_-16">
          <mxGeometry relative="1" as="geometry" />
        </mxCell>
        <mxCell id="WI_3s359e2L3Rit39Bw_-21" style="edgeStyle=orthogonalEdgeStyle;rounded=0;orthogonalLoop=1;jettySize=auto;html=1;entryX=1;entryY=0.5;entryDx=0;entryDy=0;" edge="1" parent="1" source="WI_3s359e2L3Rit39Bw_-15" target="WI_3s359e2L3Rit39Bw_-17">
          <mxGeometry relative="1" as="geometry">
            <Array as="points">
              <mxPoint x="730" y="520" />
            </Array>
          </mxGeometry>
        </mxCell>
        <mxCell id="WI_3s359e2L3Rit39Bw_-15" value="ITWP" style="rounded=0;whiteSpace=wrap;html=1;" vertex="1" parent="1">
          <mxGeometry x="670" y="330" width="120" height="60" as="geometry" />
        </mxCell>
        <mxCell id="WI_3s359e2L3Rit39Bw_-20" style="edgeStyle=orthogonalEdgeStyle;rounded=0;orthogonalLoop=1;jettySize=auto;html=1;exitX=0;exitY=0.5;exitDx=0;exitDy=0;entryX=0.5;entryY=1;entryDx=0;entryDy=0;" edge="1" parent="1" source="WI_3s359e2L3Rit39Bw_-16" target="WI_3s359e2L3Rit39Bw_-11">
          <mxGeometry relative="1" as="geometry" />
        </mxCell>
        <mxCell id="WI_3s359e2L3Rit39Bw_-16" value="ECTL-UPDATE" style="shape=process;whiteSpace=wrap;html=1;backgroundOutline=1;" vertex="1" parent="1">
          <mxGeometry x="365" y="410" width="120" height="60" as="geometry" />
        </mxCell>
        <mxCell id="WI_3s359e2L3Rit39Bw_-17" value="ITWP-LOCAL" style="shape=process;whiteSpace=wrap;html=1;backgroundOutline=1;" vertex="1" parent="1">
          <mxGeometry x="365" y="490" width="120" height="60" as="geometry" />
        </mxCell>
        <mxCell id="WI_3s359e2L3Rit39Bw_-18" style="edgeStyle=orthogonalEdgeStyle;rounded=0;orthogonalLoop=1;jettySize=auto;html=1;exitX=1;exitY=0.5;exitDx=0;exitDy=0;entryX=0.75;entryY=1;entryDx=0;entryDy=0;" edge="1" parent="1" source="WI_3s359e2L3Rit39Bw_-15" target="WI_3s359e2L3Rit39Bw_-15">
          <mxGeometry relative="1" as="geometry" />
        </mxCell>
        <mxCell id="WI_3s359e2L3Rit39Bw_-22" value="FPL" style="edgeStyle=orthogonalEdgeStyle;rounded=0;orthogonalLoop=1;jettySize=auto;html=1;exitX=1;exitY=0.5;exitDx=0;exitDy=0;entryX=0;entryY=0.5;entryDx=0;entryDy=0;" edge="1" parent="1" source="WI_3s359e2L3Rit39Bw_-23" target="WI_3s359e2L3Rit39Bw_-25">
          <mxGeometry relative="1" as="geometry" />
        </mxCell>
        <mxCell id="WI_3s359e2L3Rit39Bw_-23" value="EUROCTL" style="rounded=0;whiteSpace=wrap;html=1;" vertex="1" parent="1">
          <mxGeometry x="70" y="620" width="120" height="60" as="geometry" />
        </mxCell>
        <mxCell id="WI_3s359e2L3Rit39Bw_-24" value="FPL" style="edgeStyle=orthogonalEdgeStyle;rounded=0;orthogonalLoop=1;jettySize=auto;html=1;exitX=1;exitY=0.5;exitDx=0;exitDy=0;" edge="1" parent="1" source="WI_3s359e2L3Rit39Bw_-25">
          <mxGeometry relative="1" as="geometry">
            <mxPoint x="670" y="650" as="targetPoint" />
          </mxGeometry>
        </mxCell>
        <mxCell id="WI_3s359e2L3Rit39Bw_-25" value="SWIM-CORE" style="rounded=0;whiteSpace=wrap;html=1;" vertex="1" parent="1">
          <mxGeometry x="365" y="620" width="120" height="60" as="geometry" />
        </mxCell>
        <mxCell id="WI_3s359e2L3Rit39Bw_-28" value="ITWP" style="rounded=0;whiteSpace=wrap;html=1;" vertex="1" parent="1">
          <mxGeometry x="670" y="620" width="120" height="60" as="geometry" />
        </mxCell>
        <mxCell id="WI_3s359e2L3Rit39Bw_-33" style="edgeStyle=orthogonalEdgeStyle;rounded=0;orthogonalLoop=1;jettySize=auto;html=1;entryX=0;entryY=0.75;entryDx=0;entryDy=0;" edge="1" parent="1" source="WI_3s359e2L3Rit39Bw_-30" target="WI_3s359e2L3Rit39Bw_-28">
          <mxGeometry relative="1" as="geometry" />
        </mxCell>
        <mxCell id="WI_3s359e2L3Rit39Bw_-30" value="ECTL-UPDATE" style="shape=process;whiteSpace=wrap;html=1;backgroundOutline=1;" vertex="1" parent="1">
          <mxGeometry x="365" y="700" width="120" height="60" as="geometry" />
        </mxCell>
        <mxCell id="WI_3s359e2L3Rit39Bw_-34" style="edgeStyle=orthogonalEdgeStyle;rounded=0;orthogonalLoop=1;jettySize=auto;html=1;entryX=0.25;entryY=1;entryDx=0;entryDy=0;" edge="1" parent="1" source="WI_3s359e2L3Rit39Bw_-31" target="WI_3s359e2L3Rit39Bw_-28">
          <mxGeometry relative="1" as="geometry" />
        </mxCell>
        <mxCell id="WI_3s359e2L3Rit39Bw_-31" value="ITWP-LOCAL" style="shape=process;whiteSpace=wrap;html=1;backgroundOutline=1;" vertex="1" parent="1">
          <mxGeometry x="365" y="780" width="120" height="60" as="geometry" />
        </mxCell>
        <mxCell id="WI_3s359e2L3Rit39Bw_-35" value="FPL" style="edgeStyle=orthogonalEdgeStyle;rounded=0;orthogonalLoop=1;jettySize=auto;html=1;exitX=1;exitY=0.5;exitDx=0;exitDy=0;entryX=0;entryY=0.5;entryDx=0;entryDy=0;" edge="1" parent="1" source="WI_3s359e2L3Rit39Bw_-36" target="WI_3s359e2L3Rit39Bw_-38">
          <mxGeometry relative="1" as="geometry" />
        </mxCell>
        <mxCell id="WI_3s359e2L3Rit39Bw_-36" value="EUROCTL" style="rounded=0;whiteSpace=wrap;html=1;" vertex="1" parent="1">
          <mxGeometry x="65" y="880" width="120" height="60" as="geometry" />
        </mxCell>
        <mxCell id="WI_3s359e2L3Rit39Bw_-45" style="edgeStyle=orthogonalEdgeStyle;rounded=0;orthogonalLoop=1;jettySize=auto;html=1;" edge="1" parent="1" source="WI_3s359e2L3Rit39Bw_-38" target="WI_3s359e2L3Rit39Bw_-44">
          <mxGeometry relative="1" as="geometry" />
        </mxCell>
        <mxCell id="WI_3s359e2L3Rit39Bw_-38" value="SWIM-CORE" style="rounded=0;whiteSpace=wrap;html=1;" vertex="1" parent="1">
          <mxGeometry x="360" y="880" width="120" height="60" as="geometry" />
        </mxCell>
        <mxCell id="WI_3s359e2L3Rit39Bw_-39" value="ITWP" style="rounded=0;whiteSpace=wrap;html=1;" vertex="1" parent="1">
          <mxGeometry x="665" y="880" width="120" height="60" as="geometry" />
        </mxCell>
        <mxCell id="WI_3s359e2L3Rit39Bw_-47" style="edgeStyle=orthogonalEdgeStyle;rounded=0;orthogonalLoop=1;jettySize=auto;html=1;entryX=0.5;entryY=1;entryDx=0;entryDy=0;" edge="1" parent="1" source="WI_3s359e2L3Rit39Bw_-41" target="WI_3s359e2L3Rit39Bw_-44">
          <mxGeometry relative="1" as="geometry" />
        </mxCell>
        <mxCell id="WI_3s359e2L3Rit39Bw_-41" value="ECTL-UPDATE" style="shape=process;whiteSpace=wrap;html=1;backgroundOutline=1;" vertex="1" parent="1">
          <mxGeometry x="360" y="1110" width="120" height="60" as="geometry" />
        </mxCell>
        <mxCell id="WI_3s359e2L3Rit39Bw_-48" style="edgeStyle=orthogonalEdgeStyle;rounded=0;orthogonalLoop=1;jettySize=auto;html=1;entryX=0;entryY=0.5;entryDx=0;entryDy=0;" edge="1" parent="1" source="WI_3s359e2L3Rit39Bw_-43" target="WI_3s359e2L3Rit39Bw_-44">
          <mxGeometry relative="1" as="geometry">
            <Array as="points">
              <mxPoint x="340" y="1240" />
              <mxPoint x="340" y="1010" />
            </Array>
          </mxGeometry>
        </mxCell>
        <mxCell id="WI_3s359e2L3Rit39Bw_-43" value="ITWP-LOCAL" style="shape=process;whiteSpace=wrap;html=1;backgroundOutline=1;" vertex="1" parent="1">
          <mxGeometry x="360" y="1210" width="120" height="60" as="geometry" />
        </mxCell>
        <mxCell id="WI_3s359e2L3Rit39Bw_-46" style="edgeStyle=orthogonalEdgeStyle;rounded=0;orthogonalLoop=1;jettySize=auto;html=1;entryX=0;entryY=0.5;entryDx=0;entryDy=0;" edge="1" parent="1" source="WI_3s359e2L3Rit39Bw_-44" target="WI_3s359e2L3Rit39Bw_-39">
          <mxGeometry relative="1" as="geometry" />
        </mxCell>
        <mxCell id="WI_3s359e2L3Rit39Bw_-44" value="ITWP-SECIFIC" style="shape=process;whiteSpace=wrap;html=1;backgroundOutline=1;" vertex="1" parent="1">
          <mxGeometry x="360" y="980" width="120" height="60" as="geometry" />
        </mxCell>
      </root>
    </mxGraphModel>
  </diagram>
</mxfile>
